# xmcd
# 
# Track frame offsets:
#     150
#     13540
#     30723
#     47315
#     61479
#     76751
#     92913
#     118267
#     138927
#     155949
#     174620
#     183606
#     199440
#     226930
# 
# Disc length: 3299
# 
# Revision: 1
# Processed by: cddbd v1.5.2PL0 Copyright (c) Steve Scherf et al.
# Submitted via: fre:ac v1.0.17
# 
DISCID=bd0ce10e
DTITLE=Varios - Eternamente
DYEAR=2004
DGENRE=Cover
TTITLE0=Love Hurts
TTITLE1=Woman In Love
TTITLE2=Always On My Mind
TTITLE3=Imagine
TTITLE4=Dust In The  Wind
TTITLE5=Fields Of Gold
TTITLE6=We Are The World (Usa For Africa)
TTITLE7=Making Love Out Of Nothing At All
TTITLE8=Every Breath You Take
TTITLE9=Holding Back The Years
TTITLE10=Ain´t  No Sunshine
TTITLE11=Dolannes Melodie
TTITLE12=Hotel California
TTITLE13=My Way
EXTD=
EXTT0=
EXTT1=
EXTT2=
EXTT3=
EXTT4=
EXTT5=
EXTT6=
EXTT7=
EXTT8=
EXTT9=
EXTT10=
EXTT11=
EXTT12=
EXTT13=
PLAYORDER=
